<svg width="20" height="20" viewBox="0 0 20 20" fill="none" xmlns="http://www.w3.org/2000/svg">
<path d="M20 2.36757C19.2511 2.77608 18.4565 3.04403 17.643 3.1625C18.5001 2.53199 19.1414 1.53904 19.447 0.369167C18.6417 0.957313 17.7607 1.37182 16.842 1.59479C16.4582 1.09059 15.9944 0.688854 15.4791 0.414512C14.9639 0.140169 14.4084 -0.000919523 13.847 4.50959e-06C11.197 4.50959e-06 9.251 3.0419 9.849 6.19824C8.21772 6.09809 6.62178 5.57689 5.16482 4.66849C3.70785 3.76008 2.42243 2.48478 1.392 0.925372C0.867744 2.03713 0.707256 3.35286 0.943166 4.60503C1.17908 5.85719 1.79368 6.9518 2.662 7.66628C2.01062 7.6412 1.37356 7.42475 0.804 7.03501C0.759 9.37304 2.122 11.5622 4.095 12.0495C3.49071 12.2514 2.85694 12.2808 2.242 12.1356C2.50402 13.1388 3.01438 14.0162 3.70168 14.6448C4.38897 15.2734 5.21879 15.6219 6.075 15.6414C4.35502 17.3011 2.17011 18.053 0 17.7321C1.87628 19.2154 4.05989 20.0027 6.29 20C13.908 20 18.212 12.0827 17.953 4.98124C18.7559 4.26632 19.4491 3.38131 20 2.36757Z" fill="white"/>
</svg>
